:SAMPLES-PER-SECOND 30
:FULLY-SPECIFIED
:DEGREES
2049
root  -38.9159 34.9347 3.12356 -71.852 -76.914 68.2782
RightUpLeg  -21.4078 -10.5121 -20.9618
RightLeg  61.4515 -0.101501 -0.729076
RightFoot  -32.1281 0.348451 3.09467
RightToes  -1.81608e-008 0 -3.6325e-017
Spine  28.8898 -2.30101 -3.19078
Spine1  -6.08475 -2.37859 -6.79253
HEad  -31.8506 2.0722 -9.64198
LeftShoulder1  -0.280011 4.43687 -23.6226
LeftArm  -12.1601 3.46527 -44.2007
LeftForeArm  33.2583 -75.5917 -47.8085
LeftHand  0.0137338 4.21339 -3.58549
RightShoulder  -0.445844 -5.17187 19.7599
RightArm  -7.32135 -0.988694 35.8244
RightForeArm  59.6966 78.5681 90.6098
RightHand  -0.135255 2.43386 -2.20735
LeftUpLeg  -22.8882 14.3115 15.8026
LeftLeg  1.93312 3.70406 0.18873
LeftFoot  -1.20509 1.19442 -13.3432
LeftToes  1.81866e-011 -6.13092e-011 2.52013e-011
2050
root  -39.5353 34.7289 3.70787 -78.7004 -78.6122 75.4324
RightUpLeg  -21.2845 -9.2433 -20.7327
RightLeg  61.7862 0.30242 0.0779638
RightFoot  -33.01 0.4608 3.57955
RightToes  -1.81608e-008 0 -3.6325e-017
Spine  27.8971 -2.25515 -2.54288
Spine1  -5.2809 -1.92277 -8.19192
HEad  -32.7755 2.9462 -9.64487
LeftShoulder1  -0.244073 4.34172 -22.6831
LeftArm  -13.872 4.00577 -45.0657
LeftForeArm  34.7808 -75.9025 -49.2451
LeftHand  0.0189264 4.01372 -3.72905
RightShoulder  -0.497967 -5.31834 20.5473
RightArm  -6.98626 0.610844 36.1385
RightForeArm  56.4142 78.5594 87.2189
RightHand  -0.139072 2.28566 -2.29478
LeftUpLeg  -22.3746 15.0042 16.6595
LeftLeg  2.13095 6.40396 0.305337
LeftFoot  -0.661266 1.14419 -12.166
LeftToes  1.81866e-011 -6.13092e-011 2.52013e-011
2051
root  -40.3148 34.6496 4.39826 -86.7329 -80.0929 83.6057
RightUpLeg  -20.1168 -7.88968 -20.8058
RightLeg  61.055 0.75455 0.963335
RightFoot  -33.8656 0.699397 4.67046
RightToes  -1.81608e-008 0 -3.6325e-017
Spine  26.7212 -1.86244 -2.9058
Spine1  -4.45187 -1.61766 -7.64278
HEad  -32.3144 3.95088 -9.59424
LeftShoulder1  -0.375874 4.77421 -23.2256
LeftArm  -14.2856 3.81763 -45.0501
LeftForeArm  35.4195 -76.0212 -49.8085
LeftHand  0.00350637 4.41167 -3.67494
RightShoulder  -0.453832 -5.17553 20.2088
RightArm  -6.58582 1.19355 36.7703
RightForeArm  52.0595 78.4787 83.2394
RightHand  -0.153274 2.28536 -2.51006
LeftUpLeg  -20.7267 15.348 17.1818
LeftLeg  2.39071 9.23421 0.478158
LeftFoot  0.0635435 1.12556 -11.2871
LeftToes  1.81866e-011 -6.13092e-011 2.52013e-011
2052
root  -41.1673 34.6768 5.10777 -94.3679 -81.8909 91.9224
RightUpLeg  -18.8228 -6.6295 -20.0949
RightLeg  59.3407 0.902864 1.1744
RightFoot  -34.2143 0.950209 5.85067
RightToes  -1.81608e-008 0 -3.6325e-017
Spine  24.6449 -1.70661 -2.79127
Spine1  -3.68867 -1.31742 -7.85423
HEad  -31.5636 4.59172 -8.45782
LeftShoulder1  -0.265732 4.41912 -22.6622
LeftArm  -14.914 4.68379 -46.2103
LeftForeArm  35.0401 -75.8455 -48.7836
LeftHand  0.00085452 4.43224 -3.39244
RightShoulder  -0.464476 -5.20146 20.4323
RightArm  -6.05925 1.03304 36.6744
RightForeArm  47.4906 78.3342 78.3691
RightHand  -0.131967 2.43081 -2.15933
LeftUpLeg  -20.1208 15.2336 17.7584
LeftLeg  3.37911 10.3771 1.36248
LeftFoot  2.3612 1.3368 -11.0759
LeftToes  1.81866e-011 -6.13092e-011 2.52013e-011
2053
root  -42.125 34.8776 5.73214 -98.2508 -84.0169 96.9075
RightUpLeg  -16.9627 -5.17509 -18.4553
RightLeg  56.3192 0.472443 0.346733
RightFoot  -33.9796 1.19766 7.1347
RightToes  -1.81608e-008 0 -3.6325e-017
Spine  22.5948 -1.23936 -3.79964
Spine1  -4.15709 -1.2391 -6.23244
HEad  -30.1171 5.36722 -6.68053
LeftShoulder1  -0.170587 4.09549 -22.4245
LeftArm  -14.7535 5.41685 -47.3533
LeftForeArm  32.989 -75.2284 -45.7784
LeftHand  -0.00142777 4.37278 -3.01574
RightShoulder  -0.420669 -5.03717 20.4647
RightArm  -5.39651 -0.765506 36.398
RightForeArm  42.9493 78.1073 73.8339
RightHand  -0.140845 2.74521 -2.22495
LeftUpLeg  -19.54 15.4724 19.3408
LeftLeg  1.51261 8.22502 1.73589
LeftFoot  9.45249 2.58761 -14.35
LeftToes  1.81866e-011 -6.13092e-011 2.52013e-011
2054
root  -43.237 35.18 6.40022 -79.948 -85.0139 78.9556
RightUpLeg  -12.7927 -4.74632 -18.3208
RightLeg  52.318 -0.487342 -1.03757
RightFoot  -33.5738 1.54214 8.99595
RightToes  -1.81608e-008 0 -3.6325e-017
Spine  21.8888 -1.08276 -7.25772
Spine1  -5.34694 -2.30892 -2.12419
HEad  -27.7023 5.95355 -4.15982
LeftShoulder1  -0.167749 4.09116 -22.0544
LeftArm  -13.2673 5.16819 -47.9012
LeftForeArm  31.2979 -74.6176 -43.1968
LeftHand  0.00182981 4.23202 -3.24998
RightShoulder  -0.472702 -5.1843 21.2413
RightArm  -4.88051 -3.35538 35.5066
RightForeArm  38.886 77.8447 70.05
RightHand  -0.151453 2.69489 -2.38666
LeftUpLeg  -19.3537 16.4139 19.6472
LeftLeg  2.24992 6.99559 0.822811
LeftFoot  11.3173 3.88548 -19.6346
LeftToes  1.81866e-011 -6.13092e-011 2.52013e-011
2055
root  -44.422 35.5225 6.98319 -66.0222 -85.14 66.5725
RightUpLeg  -10.1777 -4.11491 -18.3118
RightLeg  48.3934 -1.59426 -2.27241
RightFoot  -32.2997 1.8086 10.9474
RightToes  -1.81608e-008 0 -3.6325e-017
Spine  17.6136 -0.253497 -12.2042
Spine1  -3.36359 -2.57662 2.86789
HEad  -24.7803 5.30292 -2.11647
LeftShoulder1  -0.345151 4.69868 -22.5322
LeftArm  -10.5262 2.31711 -48.261
LeftForeArm  28.2727 -73.5881 -39.7159
LeftHand  -0.00145894 4.73541 -3.82987
RightShoulder  -0.521818 -5.36861 21.1232
RightArm  -5.73865 -6.47344 35.0883
RightForeArm  36.3079 77.6199 67.2385
RightHand  -0.113443 2.90114 -1.81193
LeftUpLeg  -19.2691 17.7453 19.898
LeftLeg  2.72218 9.153 -0.441433
LeftFoot  11.6663 4.70081 -23.1624
LeftToes  1.81866e-011 -6.13092e-011 2.52013e-011
2056
root  -45.5396 35.8646 7.71601 -52.7981 -84.2904 55.5018
RightUpLeg  -9.01249 -4.56154 -19.7603
RightLeg  45.8604 -1.35517 -1.81795
RightFoot  -29.3882 2.09601 14.4423
RightToes  -1.81608e-008 0 -3.6325e-017
Spine  13.2313 -0.592396 -15.2926
Spine1  -2.57682 -3.00353 4.46976
HEad  -21.1254 4.22722 -0.0115662
LeftShoulder1  -0.42387 4.99531 -21.9697
LeftArm  -7.589 0.288929 -49.3325
LeftForeArm  24.7796 -72.319 -36.148
LeftHand  -0.00211475 4.72748 -3.78134
RightShoulder  -0.543787 -5.42214 21.4921
RightArm  -6.51912 -9.95128 34.4772
RightForeArm  32.1093 77.2196 63.2274
RightHand  -0.116711 3.45003 -1.77901
LeftUpLeg  -19.9504 17.0149 18.5226
LeftLeg  2.42738 12.1725 -0.424643
LeftFoot  13.5376 5.4559 -24.7805
LeftToes  1.81866e-011 -6.13092e-011 2.52013e-011
2057
root  -46.5277 36.1727 8.4314 -38.6895 -84.0075 42.5078
RightUpLeg  -8.52425 -5.39973 -20.7628
RightLeg  45.9581 0.329971 0.0617218
RightFoot  -24.2912 1.97907 18.9777
RightToes  -1.81608e-008 0 -3.6325e-017
Spine  11.528 -0.987993 -16.2833
Spine1  -3.4692 -3.2484 4.61901
HEad  -18.6743 3.04712 0.854904
LeftShoulder1  -0.345513 4.73989 -21.5521
LeftArm  -5.37867 0.422625 -50.5085
LeftForeArm  25.1636 -72.0954 -35.4355
LeftHand  -0.00447292 4.81158 -3.70132
RightShoulder  -0.619601 -5.6686 21.8381
RightArm  -6.8305 -13.2296 32.9167
RightForeArm  30.3208 77.047 61.8838
RightHand  -0.0951924 3.75579 -1.46563
LeftUpLeg  -21.1282 16.4156 17.7589
LeftLeg  3.80085 10.5176 -0.0242701
LeftFoot  15.4433 5.75109 -24.2348
LeftToes  1.81866e-011 -6.13092e-011 2.52013e-011
2058
root  -47.4907 36.5781 9.0112 -26.6777 -84.1521 30.8567
RightUpLeg  -9.47996 -6.20662 -21.3032
RightLeg  48.5147 1.8502 1.9162
RightFoot  -15.8055 0.777598 20.8327
RightToes  -1.81608e-008 0 -3.6325e-017
Spine  11.5426 -0.725677 -17.9391
Spine1  -5.18066 -3.28601 6.47985
HEad  -16.6531 1.71375 1.61974
LeftShoulder1  -0.169519 4.10246 -21.7232
LeftArm  -3.35971 0.401276 -51.3396
LeftForeArm  23.9236 -71.3984 -33.7408
LeftHand  -0.00539248 4.75167 -3.50377
RightShoulder  -0.608323 -5.656 21.4386
RightArm  -7.75059 -16.2146 32.0967
RightForeArm  28.5593 76.8202 60.0327
RightHand  -0.04326 3.8207 -0.80541
LeftUpLeg  -21.4422 16.5132 17.8204
LeftLeg  6.07586 8.09292 0.181514
LeftFoot  14.5738 5.03579 -22.0432
LeftToes  1.81866e-011 -6.13092e-011 2.52013e-011
